<?xml version="1.0" standalone="no"?>
<!DOCTYPE svg PUBLIC "-//W3C//DTD SVG 20010904//EN"
 "http://www.w3.org/TR/2001/REC-SVG-20010904/DTD/svg10.dtd">
<svg version="1.0" xmlns="http://www.w3.org/2000/svg"
 width="559.000000pt" height="215.000000pt" viewBox="0 0 559.000000 215.000000"
 preserveAspectRatio="xMidYMid meet">

<g transform="translate(0.000000,215.000000) scale(0.100000,-0.100000)"
fill="#000000" stroke="none">
<path d="M333 2140 c-134 -24 -241 -87 -290 -170 -30 -48 -33 -62 -33 -130 0
-174 117 -283 380 -355 197 -54 235 -68 235 -90 0 -18 -6 -20 -56 -19 -71 1
-179 27 -292 70 -104 40 -138 42 -192 11 -45 -25 -85 -92 -85 -142 0 -37 36
-101 70 -127 62 -45 291 -88 475 -88 193 0 301 30 386 107 137 124 109 344
-53 429 -18 10 -70 29 -115 43 l-82 26 76 40 c42 22 101 64 131 93 52 50 54
55 49 94 -11 81 -110 158 -246 193 -77 20 -283 28 -358 15z m265 -220 c72 -33
88 -114 37 -187 -14 -21 -17 -21 -77 -7 -128 29 -168 56 -168 113 1 42 16 65
56 86 40 20 100 19 152 -5z"/>
<path d="M1193 2095 c-18 -8 -42 -29 -53 -47 -19 -32 -20 -50 -20 -428 0 -374
1 -397 20 -427 37 -62 43 -63 420 -63 293 0 347 2 376 16 98 47 99 201 1 247
-29 14 -70 17 -257 17 l-223 0 6 60 c6 68 32 117 75 143 38 22 96 22 117 0 23
-23 14 -83 -19 -134 -15 -21 -21 -39 -15 -39 26 0 138 62 173 96 41 40 75 104
76 142 0 36 -27 80 -62 98 -46 24 -134 22 -184 -4 -66 -34 -101 -69 -133 -134
l-31 -61 0 126 0 127 218 0 c187 0 222 2 252 18 96 48 96 192 0 243 -32 18
-62 19 -370 19 -265 -1 -342 -4 -367 -15z"/>
<path d="M2100 1685 c0 -404 1 -428 20 -464 32 -64 110 -101 185 -87 37 7 97
53 118 90 8 15 13 122 17 366 l5 344 49 -64 c101 -133 150 -279 149 -445 -1
-114 -24 -195 -73 -257 l-30 -37 54 -6 c70 -9 176 8 228 37 87 48 113 130 84
263 -10 44 -22 104 -28 134 -22 112 30 276 111 356 l41 39 0 -413 0 -414 47 7
c107 14 214 93 264 193 24 48 24 51 27 416 l3 367 -176 0 -176 0 -102 -102
c-77 -78 -110 -120 -135 -170 l-33 -68 -62 83 c-34 45 -102 121 -150 170 l-89
87 -174 0 -174 0 0 -425z"/>
<path d="M3752 1838 c-22 -22 -13 -48 23 -69 19 -12 35 -25 35 -30 0 -15 -40
-10 -46 6 -7 18 -37 20 -32 3 3 -7 17 -20 31 -28 24 -13 30 -13 55 0 39 22 35
51 -10 73 -39 18 -50 37 -22 37 9 0 23 -8 30 -17 16 -22 32 -8 18 15 -13 21
-65 27 -82 10z"/>
<path d="M3945 1785 l0 -65 46 0 c32 0 49 5 53 15 6 17 -9 21 -19 5 -13 -20
-35 -10 -35 16 0 22 2 25 15 14 13 -10 15 -9 15 8 0 15 -5 20 -15 16 -11 -5
-15 1 -15 20 0 31 6 32 33 9 19 -17 19 -17 16 2 -3 16 -13 21 -49 23 l-45 3 0
-66z"/>
<path d="M4149 1821 c26 -36 26 -52 1 -79 l-21 -22 21 0 c11 0 20 6 20 14 0
21 21 31 30 15 5 -7 6 -17 4 -21 -3 -4 11 -8 31 -8 l36 0 -25 33 -25 33 25 32
25 32 -26 0 c-16 0 -24 -4 -20 -10 4 -6 4 -18 1 -27 -5 -12 -9 -13 -21 -3 -7
6 -11 18 -8 26 4 10 -4 14 -32 14 l-36 0 20 -29z"/>
<path d="M3758 1559 c-31 -18 -22 -55 18 -79 29 -16 34 -24 25 -33 -10 -9 -17
-7 -32 12 -15 18 -23 21 -31 13 -31 -31 57 -58 96 -29 24 18 13 55 -19 63 -13
3 -29 12 -35 19 -17 21 8 30 29 11 22 -20 31 -20 31 -1 0 9 -12 20 -26 25 -31
12 -34 12 -56 -1z"/>
<path d="M4196 1549 c-32 -25 -35 -70 -6 -99 41 -41 110 -13 110 43 0 38 -7
50 -37 66 -30 15 -36 14 -67 -10z m53 -13 c15 -18 17 -74 4 -87 -16 -16 -43
18 -43 55 0 46 16 59 39 32z"/>
<path d="M3945 1495 c0 -61 1 -65 23 -65 18 0 22 6 22 30 0 24 4 30 21 30 18
0 21 -5 17 -30 -4 -27 -2 -30 21 -30 25 0 26 2 26 65 0 61 -1 65 -22 65 -18 0
-23 -6 -23 -25 0 -18 -5 -25 -20 -25 -15 0 -20 7 -20 25 0 19 -5 25 -22 25
-22 0 -23 -4 -23 -65z"/>
<path d="M4398 1495 c-3 -64 -3 -65 23 -65 20 0 25 5 25 23 -1 17 5 23 27 25
34 4 52 34 37 62 -8 16 -21 20 -59 20 l-49 0 -4 -65z m74 38 c7 -25 -1 -43
-18 -43 -9 0 -14 11 -14 30 0 33 24 42 32 13z"/>
<path d="M3002 1022 c-69 -25 -121 -68 -150 -123 -31 -58 -25 -113 22 -236 19
-51 40 -118 47 -150 11 -52 10 -63 -8 -104 -25 -56 -68 -79 -145 -79 -65 0
-125 26 -161 69 l-27 33 0 226 c0 199 -3 232 -19 268 -58 128 -232 135 -301
12 -20 -36 -21 -48 -18 -315 l3 -278 32 -66 c98 -200 354 -308 607 -254 160
34 278 121 344 254 35 71 37 80 37 170 0 105 -2 111 -115 321 -49 93 -53 144
-14 184 25 24 80 46 114 46 8 -1 32 -7 53 -14 56 -20 45 -8 -20 22 -78 35
-203 41 -281 14z"/>
<path d="M2 591 c3 -428 4 -440 24 -468 46 -62 76 -73 200 -73 l114 0 0 335
c0 279 2 335 14 335 7 0 49 -18 92 -40 236 -119 364 -311 364 -547 l0 -83 170
0 170 0 0 418 c0 384 -2 420 -19 458 -48 105 -182 133 -264 56 -55 -52 -57
-61 -58 -324 l0 -243 -28 80 c-52 152 -110 242 -233 361 -45 45 -111 102 -145
128 l-61 46 -172 0 -171 0 3 -439z"/>
<path d="M1370 1019 c-14 -6 -36 -20 -48 -32 -52 -48 -52 -50 -52 -449 0 -416
1 -420 69 -465 34 -23 37 -23 380 -23 325 0 348 1 378 20 65 39 85 105 54 175
-16 36 -29 50 -63 65 -38 17 -67 20 -262 20 l-219 0 6 55 c3 31 14 70 24 88
39 66 130 99 168 60 23 -22 15 -91 -15 -133 -12 -17 -20 -34 -17 -37 10 -9
131 52 169 86 42 36 78 104 78 145 0 72 -57 116 -150 116 -93 0 -186 -65 -236
-166 l-24 -49 3 125 2 125 225 5 c194 4 230 8 253 23 84 55 85 171 3 230 -30
22 -37 22 -366 24 -210 1 -344 -2 -360 -8z"/>
<path d="M3380 605 c0 -404 1 -428 20 -465 28 -56 72 -83 139 -87 70 -5 125
24 158 82 21 37 23 53 23 198 l0 157 53 0 52 0 0 -112 c0 -110 1 -115 34 -176
34 -63 76 -103 141 -138 50 -26 160 -24 223 4 61 28 157 119 209 199 23 35 41
63 42 63 1 0 -1 -26 -3 -57 -6 -111 34 -184 125 -229 81 -40 186 -40 266 -1
129 63 237 254 238 420 0 38 9 21 85 -152 47 -107 93 -203 102 -214 32 -36
100 -60 150 -52 77 11 143 88 143 166 0 19 -68 188 -171 425 l-172 394 -181
-1 -181 -1 -136 -206 c-75 -114 -146 -223 -157 -242 -49 -84 -175 -175 -291
-210 -77 -24 -190 -26 -254 -4 -43 14 -147 95 -147 113 0 5 44 11 98 14 162 9
256 58 306 159 68 137 2 288 -154 350 -52 21 -72 23 -407 26 l-353 3 0 -426z
m1614 152 c85 -195 95 -235 76 -293 -29 -87 -155 -166 -231 -144 -122 35 -143
203 -53 408 27 62 115 212 123 212 4 0 42 -83 85 -183z m-1062 -27 c46 -35 39
-133 -10 -159 -12 -6 -61 -11 -111 -11 l-91 0 0 95 0 95 94 0 c78 0 97 -3 118
-20z"/>
</g>
</svg>
